<?xml version="1.0" encoding="UTF-8" standalone="no"?>
<!-- Created with Inkscape (http://www.inkscape.org/) -->
<svg
	 xmlns:dc="http://purl.org/dc/elements/1.1/"
	 xmlns:cc="http://creativecommons.org/ns#"
	 xmlns:rdf="http://www.w3.org/1999/02/22-rdf-syntax-ns#"
	 xmlns:svg="http://www.w3.org/2000/svg"
	 xmlns="http://www.w3.org/2000/svg"
	 version="1.1"
	 width="20"
	 height="20"
	 viewBox="0 0 20 20"
	 xml:space="preserve">
	<defs>
		<mask id="mask">
			<path
				  fill="white"
				  d="M 40,0 C 17.937,0 0,17.937 0,40 0,62.063 17.937,80 40,80 62.063,80 80,62.063 80,40 80,17.937 62.063,0 40,0 Z m 0,4.8008 c 19.469,0 35.199,15.73 35.199,35.199 0,2.816 -0.339,5.549 -0.961,8.172 l -6.064,-22.633 c -1.519,-5.668 -3.845,-9.477 -6.979,-11.426 -3.134,-1.948 -7.139,-2.269 -12.013,-0.963 -3.122,0.837 -5.731,2.27 -7.828,4.299 -2.071,2.022 -3.489,4.502 -4.258,7.438 l -0.166,0.043 c -3.415,-4.75 -8.641,-6.181 -15.678,-4.295 -2.738,0.734 -5.079,2.02 -7.022,3.861 -1.95,1.814 -3.244,3.995 -3.882,6.543 l -0.246,0.066 -2.2856,-5.38 c 5.4676,-12.336 17.801,-20.924 32.184,-20.924 z m 14.094,11.447 c 1.892,-0.005 3.537,0.474 4.933,1.44 2.234,1.544 3.933,4.493 5.1,8.847 l 7.664,28.606 c -5.652,11.87 -17.747,20.06 -31.791,20.06 -7.396,0 -14.249,-2.275 -19.908,-6.158 l -6.434,-24.01 c -1.607,-5.997 -1.706,-10.636 -0.297,-13.92 1.402,-3.31 4.445,-5.593 9.127,-6.847 6.901,-1.849 11.359,0.991 13.377,8.521 l 8.178,30.52 4.148,-1.112 -7.009,-26.166 c -1.446,-5.394 -1.411,-9.643 0.105,-12.75 1.516,-3.106 4.56,-5.272 9.133,-6.498 1.314,-0.352 2.538,-0.53 3.674,-0.533 z m -48.334,15.58 8.6762,32.375 C 8.4657,57.8978 4.801,49.3868 4.801,39.9998 c 0,-2.815 0.3374,-5.549 0.959,-8.172 z"/>
		</mask>
	</defs>
	<path
		  fill="white"
		  d="M 40,0 C 17.937,0 0,17.937 0,40 0,62.063 17.937,80 40,80 62.063,80 80,62.063 80,40 80,17.937 62.063,0 40,0 Z m 0,4.8008 c 19.469,0 35.199,15.73 35.199,35.199 0,2.816 -0.339,5.549 -0.961,8.172 l -6.064,-22.633 c -1.519,-5.668 -3.845,-9.477 -6.979,-11.426 -3.134,-1.948 -7.139,-2.269 -12.013,-0.963 -3.122,0.837 -5.731,2.27 -7.828,4.299 -2.071,2.022 -3.489,4.502 -4.258,7.438 l -0.166,0.043 c -3.415,-4.75 -8.641,-6.181 -15.678,-4.295 -2.738,0.734 -5.079,2.02 -7.022,3.861 -1.95,1.814 -3.244,3.995 -3.882,6.543 l -0.246,0.066 -2.2856,-5.38 c 5.4676,-12.336 17.801,-20.924 32.184,-20.924 z m 14.094,11.447 c 1.892,-0.005 3.537,0.474 4.933,1.44 2.234,1.544 3.933,4.493 5.1,8.847 l 7.664,28.606 c -5.652,11.87 -17.747,20.06 -31.791,20.06 -7.396,0 -14.249,-2.275 -19.908,-6.158 l -6.434,-24.01 c -1.607,-5.997 -1.706,-10.636 -0.297,-13.92 1.402,-3.31 4.445,-5.593 9.127,-6.847 6.901,-1.849 11.359,0.991 13.377,8.521 l 8.178,30.52 4.148,-1.112 -7.009,-26.166 c -1.446,-5.394 -1.411,-9.643 0.105,-12.75 1.516,-3.106 4.56,-5.272 9.133,-6.498 1.314,-0.352 2.538,-0.53 3.674,-0.533 z m -48.334,15.58 8.6762,32.375 C 8.4657,57.8978 4.801,49.3868 4.801,39.9998 c 0,-2.815 0.3374,-5.549 0.959,-8.172 z"/>
</svg>
